<svg xmlns="http://www.w3.org/2000/svg" xmlns:xlink="http://www.w3.org/1999/xlink" width="500" zoomAndPan="magnify" viewBox="0 0 375 225" height="300" preserveAspectRatio="xMidYMid meet" version="1.0"><defs><g/><clipPath id="a21c737100"><path d="M 110 5 L 127 5 L 127 27 L 110 27 Z M 110 5 " clip-rule="nonzero"/></clipPath><clipPath id="28a9e6084e"><rect x="0" width="127" y="0" height="34"/></clipPath><clipPath id="ec163e11eb"><rect x="0" width="341" y="0" height="63"/></clipPath></defs><g transform="matrix(1, 0, 0, 1, 248, 74)"><g clip-path="url(#28a9e6084e)"><g fill="#ffffff" fill-opacity="1"><g transform="translate(1.53287, 26.975505)"><g><path d="M 22.8125 -21.71875 L 22.8125 -17.375 L 14.125 -17.375 L 14.125 0 L 9.78125 0 L 9.78125 -17.375 L 1.09375 -17.375 L 1.09375 -21.71875 Z M 22.8125 -21.71875 "/></g></g></g><g fill="#ffffff" fill-opacity="1"><g transform="translate(25.428333, 26.975505)"><g><path d="M 18.46875 -13.03125 L 18.46875 -21.71875 L 22.8125 -21.71875 L 22.8125 0 L 18.46875 0 L 18.46875 -8.6875 L 5.4375 -8.6875 L 5.4375 0 L 1.09375 0 L 1.09375 -21.71875 L 5.4375 -21.71875 L 5.4375 -13.03125 Z M 18.46875 -13.03125 "/></g></g></g><g fill="#ffffff" fill-opacity="1"><g transform="translate(49.323797, 26.975505)"><g><path d="M 22.8125 -21.71875 L 22.8125 -17.375 L 5.4375 -17.375 L 5.4375 -13.03125 L 22.8125 -13.03125 L 22.8125 -8.6875 L 5.4375 -8.6875 L 5.4375 -4.34375 L 22.8125 -4.34375 L 22.8125 0 L 5.4375 0 C 4.632812 0 3.898438 -0.191406 3.234375 -0.578125 C 2.578125 -0.972656 2.054688 -1.5 1.671875 -2.15625 C 1.285156 -2.820312 1.09375 -3.550781 1.09375 -4.34375 L 1.09375 -17.375 C 1.09375 -18.175781 1.285156 -18.90625 1.671875 -19.5625 C 2.054688 -20.226562 2.578125 -20.753906 3.234375 -21.140625 C 3.898438 -21.523438 4.632812 -21.71875 5.4375 -21.71875 Z M 22.8125 -21.71875 "/></g></g></g><g fill="#ffffff" fill-opacity="1"><g transform="translate(73.21926, 26.975505)"><g/></g></g><g fill="#ffffff" fill-opacity="1"><g transform="translate(85.166999, 26.975505)"><g><path d="M 22.8125 0 L 5.4375 0 C 4.632812 0 3.898438 -0.191406 3.234375 -0.578125 C 2.578125 -0.972656 2.054688 -1.5 1.671875 -2.15625 C 1.285156 -2.820312 1.09375 -3.550781 1.09375 -4.34375 L 1.09375 -17.375 C 1.09375 -18.175781 1.285156 -18.90625 1.671875 -19.5625 C 2.054688 -20.226562 2.578125 -20.753906 3.234375 -21.140625 C 3.898438 -21.523438 4.632812 -21.71875 5.4375 -21.71875 L 22.8125 -21.71875 L 22.8125 -17.375 L 5.4375 -17.375 L 5.4375 -4.34375 L 22.8125 -4.34375 Z M 22.8125 0 "/></g></g></g><g clip-path="url(#a21c737100)"><g fill="#ffffff" fill-opacity="1"><g transform="translate(109.062462, 26.975505)"><g><path d="M 18.46875 0 L 5.4375 0 C 4.632812 0 3.898438 -0.191406 3.234375 -0.578125 C 2.578125 -0.972656 2.054688 -1.5 1.671875 -2.15625 C 1.285156 -2.820312 1.09375 -3.550781 1.09375 -4.34375 L 1.09375 -17.375 C 1.09375 -18.175781 1.285156 -18.90625 1.671875 -19.5625 C 2.054688 -20.226562 2.578125 -20.753906 3.234375 -21.140625 C 3.898438 -21.523438 4.632812 -21.71875 5.4375 -21.71875 L 18.46875 -21.71875 C 19.257812 -21.71875 19.984375 -21.523438 20.640625 -21.140625 C 21.304688 -20.753906 21.832031 -20.226562 22.21875 -19.5625 C 22.613281 -18.90625 22.8125 -18.175781 22.8125 -17.375 L 22.8125 -4.34375 C 22.8125 -3.5625 22.613281 -2.835938 22.21875 -2.171875 C 21.832031 -1.515625 21.3125 -0.988281 20.65625 -0.59375 C 20.007812 -0.195312 19.28125 0 18.46875 0 Z M 5.4375 -17.375 L 5.4375 -4.34375 L 18.46875 -4.34375 L 18.46875 -17.375 Z M 5.4375 -17.375 "/></g></g></g></g></g></g><path stroke-linecap="round" transform="matrix(0, 0.75, -0.75, 0, 5.029175, 44.478524)" fill="none" stroke-linejoin="miter" d="M 1.002593 1.002441 L 180.403642 1.002441 " stroke="#ffffff" stroke-width="2" stroke-opacity="1" stroke-miterlimit="4"/><g transform="matrix(1, 0, 0, 1, 28, 81)"><g clip-path="url(#ec163e11eb)"><g fill="#ffffff" fill-opacity="1"><g transform="translate(0.381621, 46.729477)"><g><path d="M 25.25 -31.265625 L 25.25 -25.15625 L 16.96875 -25.15625 L 16.96875 0 L 9.359375 0 L 9.359375 -25.15625 L 1.0625 -25.15625 L 1.0625 -31.265625 Z M 25.25 -31.265625 "/></g></g></g><g fill="#ffffff" fill-opacity="1"><g transform="translate(26.695925, 46.729477)"><g><path d="M 29.84375 -31.265625 L 29.84375 0 L 22.21875 0 L 22.21875 -12.875 L 10.375 -12.875 L 10.375 0 L 2.765625 0 L 2.765625 -31.265625 L 10.375 -31.265625 L 10.375 -19.015625 L 22.21875 -19.015625 L 22.21875 -31.265625 Z M 29.84375 -31.265625 "/></g></g></g><g fill="#ffffff" fill-opacity="1"><g transform="translate(59.243745, 46.729477)"><g><path d="M 10.375 -25.15625 L 10.375 -18.84375 L 20.578125 -18.84375 L 20.578125 -12.953125 L 10.375 -12.953125 L 10.375 -6.09375 L 21.90625 -6.09375 L 21.90625 0 L 2.765625 0 L 2.765625 -31.265625 L 21.90625 -31.265625 L 21.90625 -25.15625 Z M 10.375 -25.15625 "/></g></g></g><g fill="#ffffff" fill-opacity="1"><g transform="translate(83.3318, 46.729477)"><g/></g></g><g fill="#ffffff" fill-opacity="1"><g transform="translate(92.771121, 46.729477)"><g><path d="M 1.46875 -15.671875 C 1.46875 -18.765625 2.132812 -21.519531 3.46875 -23.9375 C 4.8125 -26.351562 6.675781 -28.238281 9.0625 -29.59375 C 11.445312 -30.945312 14.15625 -31.625 17.1875 -31.625 C 20.894531 -31.625 24.070312 -30.640625 26.71875 -28.671875 C 29.363281 -26.710938 31.128906 -24.039062 32.015625 -20.65625 L 23.640625 -20.65625 C 23.023438 -21.96875 22.144531 -22.960938 21 -23.640625 C 19.851562 -24.328125 18.550781 -24.671875 17.09375 -24.671875 C 14.75 -24.671875 12.847656 -23.851562 11.390625 -22.21875 C 9.941406 -20.582031 9.21875 -18.398438 9.21875 -15.671875 C 9.21875 -12.941406 9.941406 -10.757812 11.390625 -9.125 C 12.847656 -7.5 14.75 -6.6875 17.09375 -6.6875 C 18.550781 -6.6875 19.851562 -7.023438 21 -7.703125 C 22.144531 -8.390625 23.023438 -9.382812 23.640625 -10.6875 L 32.015625 -10.6875 C 31.128906 -7.300781 29.363281 -4.632812 26.71875 -2.6875 C 24.070312 -0.75 20.894531 0.21875 17.1875 0.21875 C 14.15625 0.21875 11.445312 -0.453125 9.0625 -1.796875 C 6.675781 -3.148438 4.8125 -5.03125 3.46875 -7.4375 C 2.132812 -9.84375 1.46875 -12.585938 1.46875 -15.671875 Z M 1.46875 -15.671875 "/></g></g></g><g fill="#ffffff" fill-opacity="1"><g transform="translate(126.699212, 46.729477)"><g><path d="M 17.546875 0.3125 C 14.609375 0.3125 11.914062 -0.367188 9.46875 -1.734375 C 7.019531 -3.097656 5.070312 -5.003906 3.625 -7.453125 C 2.1875 -9.910156 1.46875 -12.664062 1.46875 -15.71875 C 1.46875 -18.78125 2.1875 -21.523438 3.625 -23.953125 C 5.070312 -26.390625 7.019531 -28.289062 9.46875 -29.65625 C 11.914062 -31.019531 14.609375 -31.703125 17.546875 -31.703125 C 20.484375 -31.703125 23.175781 -31.019531 25.625 -29.65625 C 28.070312 -28.289062 30 -26.390625 31.40625 -23.953125 C 32.820312 -21.523438 33.53125 -18.78125 33.53125 -15.71875 C 33.53125 -12.664062 32.816406 -9.910156 31.390625 -7.453125 C 29.960938 -5.003906 28.03125 -3.097656 25.59375 -1.734375 C 23.164062 -0.367188 20.484375 0.3125 17.546875 0.3125 Z M 17.546875 -6.640625 C 20.035156 -6.640625 22.03125 -7.46875 23.53125 -9.125 C 25.03125 -10.789062 25.78125 -12.988281 25.78125 -15.71875 C 25.78125 -18.476562 25.03125 -20.679688 23.53125 -22.328125 C 22.03125 -23.972656 20.035156 -24.796875 17.546875 -24.796875 C 15.023438 -24.796875 13.015625 -23.976562 11.515625 -22.34375 C 10.015625 -20.71875 9.265625 -18.507812 9.265625 -15.71875 C 9.265625 -12.957031 10.015625 -10.753906 11.515625 -9.109375 C 13.015625 -7.460938 15.023438 -6.640625 17.546875 -6.640625 Z M 17.546875 -6.640625 "/></g></g></g><g fill="#ffffff" fill-opacity="1"><g transform="translate(161.695904, 46.729477)"><g><path d="M 38.15625 -31.265625 L 38.15625 0 L 30.546875 0 L 30.546875 -18.75 L 23.5625 0 L 17.40625 0 L 10.375 -18.796875 L 10.375 0 L 2.765625 0 L 2.765625 -31.265625 L 11.75 -31.265625 L 20.53125 -9.625 L 29.21875 -31.265625 Z M 38.15625 -31.265625 "/></g></g></g><g fill="#ffffff" fill-opacity="1"><g transform="translate(202.569913, 46.729477)"><g><path d="M 38.15625 -31.265625 L 38.15625 0 L 30.546875 0 L 30.546875 -18.75 L 23.5625 0 L 17.40625 0 L 10.375 -18.796875 L 10.375 0 L 2.765625 0 L 2.765625 -31.265625 L 11.75 -31.265625 L 20.53125 -9.625 L 29.21875 -31.265625 Z M 38.15625 -31.265625 "/></g></g></g><g fill="#ffffff" fill-opacity="1"><g transform="translate(243.443921, 46.729477)"><g><path d="M 17.546875 0.3125 C 14.609375 0.3125 11.914062 -0.367188 9.46875 -1.734375 C 7.019531 -3.097656 5.070312 -5.003906 3.625 -7.453125 C 2.1875 -9.910156 1.46875 -12.664062 1.46875 -15.71875 C 1.46875 -18.78125 2.1875 -21.523438 3.625 -23.953125 C 5.070312 -26.390625 7.019531 -28.289062 9.46875 -29.65625 C 11.914062 -31.019531 14.609375 -31.703125 17.546875 -31.703125 C 20.484375 -31.703125 23.175781 -31.019531 25.625 -29.65625 C 28.070312 -28.289062 30 -26.390625 31.40625 -23.953125 C 32.820312 -21.523438 33.53125 -18.78125 33.53125 -15.71875 C 33.53125 -12.664062 32.816406 -9.910156 31.390625 -7.453125 C 29.960938 -5.003906 28.03125 -3.097656 25.59375 -1.734375 C 23.164062 -0.367188 20.484375 0.3125 17.546875 0.3125 Z M 17.546875 -6.640625 C 20.035156 -6.640625 22.03125 -7.46875 23.53125 -9.125 C 25.03125 -10.789062 25.78125 -12.988281 25.78125 -15.71875 C 25.78125 -18.476562 25.03125 -20.679688 23.53125 -22.328125 C 22.03125 -23.972656 20.035156 -24.796875 17.546875 -24.796875 C 15.023438 -24.796875 13.015625 -23.976562 11.515625 -22.34375 C 10.015625 -20.71875 9.265625 -18.507812 9.265625 -15.71875 C 9.265625 -12.957031 10.015625 -10.753906 11.515625 -9.109375 C 13.015625 -7.460938 15.023438 -6.640625 17.546875 -6.640625 Z M 17.546875 -6.640625 "/></g></g></g><g fill="#ffffff" fill-opacity="1"><g transform="translate(278.440614, 46.729477)"><g><path d="M 30.734375 0 L 23.109375 0 L 10.375 -19.28125 L 10.375 0 L 2.765625 0 L 2.765625 -31.265625 L 10.375 -31.265625 L 23.109375 -11.890625 L 23.109375 -31.265625 L 30.734375 -31.265625 Z M 30.734375 0 "/></g></g></g><g fill="#ffffff" fill-opacity="1"><g transform="translate(311.923476, 46.729477)"><g><path d="M 14.078125 0.3125 C 11.785156 0.3125 9.734375 -0.0546875 7.921875 -0.796875 C 6.109375 -1.546875 4.660156 -2.644531 3.578125 -4.09375 C 2.492188 -5.550781 1.925781 -7.304688 1.875 -9.359375 L 9.96875 -9.359375 C 10.09375 -8.191406 10.492188 -7.304688 11.171875 -6.703125 C 11.859375 -6.097656 12.75 -5.796875 13.84375 -5.796875 C 14.976562 -5.796875 15.867188 -6.050781 16.515625 -6.5625 C 17.171875 -7.082031 17.5 -7.804688 17.5 -8.734375 C 17.5 -9.503906 17.238281 -10.140625 16.71875 -10.640625 C 16.195312 -11.148438 15.554688 -11.566406 14.796875 -11.890625 C 14.046875 -12.210938 12.972656 -12.582031 11.578125 -13 C 9.554688 -13.625 7.90625 -14.25 6.625 -14.875 C 5.351562 -15.5 4.253906 -16.414062 3.328125 -17.625 C 2.410156 -18.84375 1.953125 -20.4375 1.953125 -22.40625 C 1.953125 -25.3125 3.003906 -27.585938 5.109375 -29.234375 C 7.222656 -30.878906 9.972656 -31.703125 13.359375 -31.703125 C 16.804688 -31.703125 19.582031 -30.878906 21.6875 -29.234375 C 23.789062 -27.585938 24.921875 -25.296875 25.078125 -22.359375 L 16.828125 -22.359375 C 16.773438 -23.367188 16.40625 -24.160156 15.71875 -24.734375 C 15.039062 -25.316406 14.164062 -25.609375 13.09375 -25.609375 C 12.175781 -25.609375 11.429688 -25.363281 10.859375 -24.875 C 10.296875 -24.382812 10.015625 -23.675781 10.015625 -22.75 C 10.015625 -21.738281 10.488281 -20.953125 11.4375 -20.390625 C 12.394531 -19.828125 13.878906 -19.21875 15.890625 -18.5625 C 17.910156 -17.882812 19.550781 -17.234375 20.8125 -16.609375 C 22.082031 -15.984375 23.175781 -15.078125 24.09375 -13.890625 C 25.007812 -12.703125 25.46875 -11.175781 25.46875 -9.3125 C 25.46875 -7.53125 25.015625 -5.910156 24.109375 -4.453125 C 23.203125 -2.992188 21.890625 -1.832031 20.171875 -0.96875 C 18.453125 -0.113281 16.421875 0.3125 14.078125 0.3125 Z M 14.078125 0.3125 "/></g></g></g></g></g></svg>