<svg xmlns="http://www.w3.org/2000/svg" xmlns:xlink="http://www.w3.org/1999/xlink" width="500" zoomAndPan="magnify" viewBox="0 0 375 149.999998" height="200" preserveAspectRatio="xMidYMid meet" version="1.0"><defs><g/><clipPath id="da208e9361"><rect x="0" width="263" y="0" height="50"/></clipPath><clipPath id="359f47ca7a"><path d="M 42 82 L 75.75 82 L 75.75 105 L 42 105 Z M 42 82 " clip-rule="nonzero"/></clipPath><clipPath id="29d82f2215"><path d="M 11 77 L 64 77 L 64 115.132812 L 11 115.132812 Z M 11 77 " clip-rule="nonzero"/></clipPath><clipPath id="1bb41af845"><path d="M 17 34.882812 L 75.75 34.882812 L 75.75 68 L 17 68 Z M 17 34.882812 " clip-rule="nonzero"/></clipPath></defs><path stroke-linecap="round" transform="matrix(0, 0.75, -0.75, 0, 92.280562, 22.552735)" fill="none" stroke-linejoin="miter" d="M 0.502603 0.499082 L 139.361986 0.499082 " stroke="#ffffff" stroke-width="1" stroke-opacity="1" stroke-miterlimit="4"/><g transform="matrix(1, 0, 0, 1, 110, 50)"><g clip-path="url(#da208e9361)"><g fill="#ffffff" fill-opacity="1"><g transform="translate(0.485089, 36.741789)"><g><path d="M 19.46875 -24.09375 L 19.46875 -19.390625 L 13.078125 -19.390625 L 13.078125 0 L 7.203125 0 L 7.203125 -19.390625 L 0.828125 -19.390625 L 0.828125 -24.09375 Z M 19.46875 -24.09375 "/></g></g></g><g fill="#ffffff" fill-opacity="1"><g transform="translate(20.773201, 36.741789)"><g><path d="M 23 -24.09375 L 23 0 L 17.125 0 L 17.125 -9.921875 L 8 -9.921875 L 8 0 L 2.125 0 L 2.125 -24.09375 L 8 -24.09375 L 8 -14.65625 L 17.125 -14.65625 L 17.125 -24.09375 Z M 23 -24.09375 "/></g></g></g><g fill="#ffffff" fill-opacity="1"><g transform="translate(45.867302, 36.741789)"><g><path d="M 8 -19.390625 L 8 -14.515625 L 15.859375 -14.515625 L 15.859375 -9.984375 L 8 -9.984375 L 8 -4.703125 L 16.890625 -4.703125 L 16.890625 0 L 2.125 0 L 2.125 -24.09375 L 16.890625 -24.09375 L 16.890625 -19.390625 Z M 8 -19.390625 "/></g></g></g><g fill="#ffffff" fill-opacity="1"><g transform="translate(64.438994, 36.741789)"><g/></g></g><g fill="#ffffff" fill-opacity="1"><g transform="translate(71.716632, 36.741789)"><g><path d="M 1.140625 -12.078125 C 1.140625 -14.460938 1.648438 -16.585938 2.671875 -18.453125 C 3.703125 -20.316406 5.140625 -21.769531 6.984375 -22.8125 C 8.828125 -23.851562 10.914062 -24.375 13.25 -24.375 C 16.113281 -24.375 18.5625 -23.617188 20.59375 -22.109375 C 22.632812 -20.597656 24 -18.535156 24.6875 -15.921875 L 18.234375 -15.921875 C 17.742188 -16.929688 17.054688 -17.695312 16.171875 -18.21875 C 15.296875 -18.75 14.300781 -19.015625 13.1875 -19.015625 C 11.375 -19.015625 9.90625 -18.382812 8.78125 -17.125 C 7.664062 -15.863281 7.109375 -14.179688 7.109375 -12.078125 C 7.109375 -9.972656 7.664062 -8.289062 8.78125 -7.03125 C 9.90625 -5.78125 11.375 -5.15625 13.1875 -5.15625 C 14.300781 -5.15625 15.296875 -5.414062 16.171875 -5.9375 C 17.054688 -6.46875 17.742188 -7.234375 18.234375 -8.234375 L 24.6875 -8.234375 C 24 -5.628906 22.632812 -3.578125 20.59375 -2.078125 C 18.5625 -0.578125 16.113281 0.171875 13.25 0.171875 C 10.914062 0.171875 8.828125 -0.347656 6.984375 -1.390625 C 5.140625 -2.429688 3.703125 -3.878906 2.671875 -5.734375 C 1.648438 -7.585938 1.140625 -9.703125 1.140625 -12.078125 Z M 1.140625 -12.078125 "/></g></g></g><g fill="#ffffff" fill-opacity="1"><g transform="translate(97.87491, 36.741789)"><g><path d="M 13.53125 0.234375 C 11.257812 0.234375 9.179688 -0.289062 7.296875 -1.34375 C 5.410156 -2.394531 3.910156 -3.863281 2.796875 -5.75 C 1.691406 -7.632812 1.140625 -9.757812 1.140625 -12.125 C 1.140625 -14.476562 1.691406 -16.59375 2.796875 -18.46875 C 3.910156 -20.34375 5.410156 -21.804688 7.296875 -22.859375 C 9.179688 -23.910156 11.257812 -24.4375 13.53125 -24.4375 C 15.789062 -24.4375 17.863281 -23.910156 19.75 -22.859375 C 21.644531 -21.804688 23.132812 -20.34375 24.21875 -18.46875 C 25.300781 -16.59375 25.84375 -14.476562 25.84375 -12.125 C 25.84375 -9.757812 25.289062 -7.632812 24.1875 -5.75 C 23.09375 -3.863281 21.609375 -2.394531 19.734375 -1.34375 C 17.859375 -0.289062 15.789062 0.234375 13.53125 0.234375 Z M 13.53125 -5.109375 C 15.445312 -5.109375 16.984375 -5.75 18.140625 -7.03125 C 19.296875 -8.3125 19.875 -10.007812 19.875 -12.125 C 19.875 -14.25 19.296875 -15.945312 18.140625 -17.21875 C 16.984375 -18.488281 15.445312 -19.125 13.53125 -19.125 C 11.582031 -19.125 10.03125 -18.492188 8.875 -17.234375 C 7.71875 -15.972656 7.140625 -14.269531 7.140625 -12.125 C 7.140625 -9.988281 7.71875 -8.285156 8.875 -7.015625 C 10.03125 -5.742188 11.582031 -5.109375 13.53125 -5.109375 Z M 13.53125 -5.109375 "/></g></g></g><g fill="#ffffff" fill-opacity="1"><g transform="translate(124.857072, 36.741789)"><g><path d="M 29.421875 -24.09375 L 29.421875 0 L 23.546875 0 L 23.546875 -14.453125 L 18.15625 0 L 13.421875 0 L 8 -14.484375 L 8 0 L 2.125 0 L 2.125 -24.09375 L 9.0625 -24.09375 L 15.828125 -7.421875 L 22.515625 -24.09375 Z M 29.421875 -24.09375 "/></g></g></g><g fill="#ffffff" fill-opacity="1"><g transform="translate(156.370595, 36.741789)"><g><path d="M 29.421875 -24.09375 L 29.421875 0 L 23.546875 0 L 23.546875 -14.453125 L 18.15625 0 L 13.421875 0 L 8 -14.484375 L 8 0 L 2.125 0 L 2.125 -24.09375 L 9.0625 -24.09375 L 15.828125 -7.421875 L 22.515625 -24.09375 Z M 29.421875 -24.09375 "/></g></g></g><g fill="#ffffff" fill-opacity="1"><g transform="translate(187.884119, 36.741789)"><g><path d="M 13.53125 0.234375 C 11.257812 0.234375 9.179688 -0.289062 7.296875 -1.34375 C 5.410156 -2.394531 3.910156 -3.863281 2.796875 -5.75 C 1.691406 -7.632812 1.140625 -9.757812 1.140625 -12.125 C 1.140625 -14.476562 1.691406 -16.59375 2.796875 -18.46875 C 3.910156 -20.34375 5.410156 -21.804688 7.296875 -22.859375 C 9.179688 -23.910156 11.257812 -24.4375 13.53125 -24.4375 C 15.789062 -24.4375 17.863281 -23.910156 19.75 -22.859375 C 21.644531 -21.804688 23.132812 -20.34375 24.21875 -18.46875 C 25.300781 -16.59375 25.84375 -14.476562 25.84375 -12.125 C 25.84375 -9.757812 25.289062 -7.632812 24.1875 -5.75 C 23.09375 -3.863281 21.609375 -2.394531 19.734375 -1.34375 C 17.859375 -0.289062 15.789062 0.234375 13.53125 0.234375 Z M 13.53125 -5.109375 C 15.445312 -5.109375 16.984375 -5.75 18.140625 -7.03125 C 19.296875 -8.3125 19.875 -10.007812 19.875 -12.125 C 19.875 -14.25 19.296875 -15.945312 18.140625 -17.21875 C 16.984375 -18.488281 15.445312 -19.125 13.53125 -19.125 C 11.582031 -19.125 10.03125 -18.492188 8.875 -17.234375 C 7.71875 -15.972656 7.140625 -14.269531 7.140625 -12.125 C 7.140625 -9.988281 7.71875 -8.285156 8.875 -7.015625 C 10.03125 -5.742188 11.582031 -5.109375 13.53125 -5.109375 Z M 13.53125 -5.109375 "/></g></g></g><g fill="#ffffff" fill-opacity="1"><g transform="translate(214.86628, 36.741789)"><g><path d="M 23.6875 0 L 17.8125 0 L 8 -14.859375 L 8 0 L 2.125 0 L 2.125 -24.09375 L 8 -24.09375 L 17.8125 -9.171875 L 17.8125 -24.09375 L 23.6875 -24.09375 Z M 23.6875 0 "/></g></g></g><g fill="#ffffff" fill-opacity="1"><g transform="translate(240.681291, 36.741789)"><g><path d="M 10.84375 0.234375 C 9.082031 0.234375 7.503906 -0.046875 6.109375 -0.609375 C 4.710938 -1.179688 3.597656 -2.03125 2.765625 -3.15625 C 1.929688 -4.28125 1.488281 -5.628906 1.4375 -7.203125 L 7.6875 -7.203125 C 7.78125 -6.316406 8.085938 -5.640625 8.609375 -5.171875 C 9.140625 -4.703125 9.828125 -4.46875 10.671875 -4.46875 C 11.546875 -4.46875 12.234375 -4.664062 12.734375 -5.0625 C 13.234375 -5.46875 13.484375 -6.023438 13.484375 -6.734375 C 13.484375 -7.328125 13.285156 -7.816406 12.890625 -8.203125 C 12.492188 -8.585938 12 -8.90625 11.40625 -9.15625 C 10.820312 -9.414062 9.992188 -9.707031 8.921875 -10.03125 C 7.367188 -10.507812 6.097656 -10.988281 5.109375 -11.46875 C 4.128906 -11.945312 3.285156 -12.65625 2.578125 -13.59375 C 1.867188 -14.53125 1.515625 -15.753906 1.515625 -17.265625 C 1.515625 -19.503906 2.328125 -21.257812 3.953125 -22.53125 C 5.578125 -23.800781 7.691406 -24.4375 10.296875 -24.4375 C 12.953125 -24.4375 15.09375 -23.800781 16.71875 -22.53125 C 18.34375 -21.257812 19.210938 -19.492188 19.328125 -17.234375 L 12.96875 -17.234375 C 12.925781 -18.015625 12.640625 -18.625 12.109375 -19.0625 C 11.585938 -19.507812 10.914062 -19.734375 10.09375 -19.734375 C 9.382812 -19.734375 8.8125 -19.546875 8.375 -19.171875 C 7.9375 -18.796875 7.71875 -18.253906 7.71875 -17.546875 C 7.71875 -16.765625 8.082031 -16.15625 8.8125 -15.71875 C 9.550781 -15.28125 10.695312 -14.8125 12.25 -14.3125 C 13.8125 -13.789062 15.078125 -13.285156 16.046875 -12.796875 C 17.015625 -12.316406 17.851562 -11.617188 18.5625 -10.703125 C 19.28125 -9.796875 19.640625 -8.617188 19.640625 -7.171875 C 19.640625 -5.796875 19.289062 -4.546875 18.59375 -3.421875 C 17.894531 -2.304688 16.878906 -1.414062 15.546875 -0.75 C 14.222656 -0.09375 12.65625 0.234375 10.84375 0.234375 Z M 10.84375 0.234375 "/></g></g></g></g></g><g clip-path="url(#359f47ca7a)"><path fill="#ffffff" d="M 71.8125 99.609375 C 73.273438 97.722656 74.570312 95.703125 75.683594 93.582031 L 64.910156 82.8125 C 64.003906 81.902344 62.488281 81.902344 61.578125 82.8125 L 46.9375 97.453125 C 45.691406 98.546875 44.226562 99.304688 42.664062 99.710938 C 51.582031 106.375 62.386719 104.503906 71.8125 99.609375 " fill-opacity="1" fill-rule="evenodd"/></g><g clip-path="url(#29d82f2215)"><path fill="#ffffff" d="M 15.433594 77.394531 C 13.480469 80.003906 12.117188 82.929688 11.492188 86.210938 C 10.433594 91.765625 11.59375 97.523438 13.714844 102.6875 C 14.253906 104.019531 14.875 105.332031 15.550781 106.609375 C 22.585938 112.113281 31.203125 115.109375 40.136719 115.109375 L 40.238281 115.109375 C 48.570312 115.109375 56.613281 112.550781 63.328125 107.804688 C 54.660156 109.839844 46.027344 108.628906 38.691406 102.554688 L 38.625 102.503906 C 37.933594 101.929688 37.292969 101.324219 36.652344 100.703125 L 18.089844 82.105469 C 16.777344 80.792969 15.871094 79.160156 15.433594 77.394531 " fill-opacity="1" fill-rule="evenodd"/></g><path fill="#ffffff" d="M 37.628906 50.195312 C 28.746094 43.617188 17.921875 45.46875 8.414062 50.464844 C 2.960938 57.5 0.03125 66.082031 0.03125 74.988281 C 0.03125 83.300781 2.574219 91.3125 7.335938 98.058594 C 6.359375 93.886719 6.089844 89.578125 6.917969 85.320312 C 7.941406 79.933594 10.585938 75.289062 14.457031 71.417969 L 33.070312 52.804688 C 34.332031 51.542969 35.914062 50.652344 37.628906 50.195312 " fill-opacity="1" fill-rule="evenodd"/><g clip-path="url(#1bb41af845)"><path fill="#ffffff" d="M 75.683594 56.390625 C 68.765625 43.179688 55.097656 34.882812 40.136719 34.882812 C 34.214844 34.882812 28.375 36.179688 23.003906 38.71875 C 20.917969 39.710938 18.933594 40.875 17.046875 42.203125 C 26.726562 39.929688 36.132812 41.730469 43.6875 49.304688 L 61.5625 67.179688 C 62.46875 68.085938 63.984375 68.085938 64.894531 67.179688 Z M 75.683594 56.390625 " fill-opacity="1" fill-rule="evenodd"/></g></svg>