<svg xmlns="http://www.w3.org/2000/svg" xmlns:xlink="http://www.w3.org/1999/xlink" width="500" zoomAndPan="magnify" viewBox="0 0 375 374.999991" height="500" preserveAspectRatio="xMidYMid meet" version="1.2"><defs><clipPath id="f599afcd7a"><path d="M 11 31 L 364 31 L 364 351.625 L 11 351.625 Z M 11 31 "/></clipPath></defs><g id="da2fc45e36"><rect x="0" width="375" y="0" height="374.999991" style="fill:#ffffff;fill-opacity:1;stroke:none;"/><rect x="0" width="375" y="0" height="374.999991" style="fill:#ffffff;fill-opacity:1;stroke:none;"/><g clip-rule="nonzero" clip-path="url(#f599afcd7a)"><path style=" stroke:none;fill-rule:nonzero;fill:#000000;fill-opacity:1;" d="M 233.328125 241.421875 C 236.679688 241.65625 240.097656 243.222656 243.6875 246.824219 L 329.644531 333.066406 L 294.644531 333.066406 Z M 153.160156 173.644531 C 156.292969 173.507812 159.957031 174.5625 163.609375 176.476562 C 178.222656 184.125 184.90625 189.34375 188.207031 195.773438 C 192.074219 203.230469 192.773438 215.34375 192.773438 236.722656 C 192.726562 237.839844 192.847656 238.871094 193.03125 239.828125 L 163.632812 256.78125 C 153.839844 262.421875 147.296875 264.878906 136.640625 265.390625 C 140.4375 236.578125 142.148438 214.382812 143.574219 185.898438 C 143.980469 177.460938 147.886719 173.886719 153.160156 173.644531 Z M 208.40625 52.929688 L 224.171875 53.46875 C 223.957031 53.824219 223.722656 54.171875 223.511719 54.597656 C 217.703125 67.292969 209.902344 74.191406 201.070312 78.660156 C 204.9375 72.019531 207.582031 63.710938 208.40625 52.929688 Z M 289.460938 31.71875 C 287.210938 31.71875 285.414062 33.03125 285.414062 34.671875 L 285.414062 35.675781 L 187.15625 38.222656 C 176.074219 38.503906 176.519531 51.90625 187.15625 52.253906 L 197.066406 52.582031 C 194.347656 66.210938 187.957031 73.230469 180.386719 78.933594 C 176.050781 82.207031 166.730469 87.074219 160.355469 87.210938 L 129.925781 87.824219 C 123.269531 87.960938 118.140625 93.691406 119.003906 100.289062 C 124.703125 143.011719 123.574219 196.445312 114.671875 263.511719 C 114.550781 264.191406 114.550781 264.847656 114.550781 265.5 L 108.746094 265.5 C 90.398438 265.5 85.738281 269.21875 71.46875 282.785156 L 13.316406 338.117188 C 9.480469 341.765625 10.835938 351.515625 17.675781 351.515625 L 358.316406 351.515625 C 363.445312 351.515625 365.929688 343.285156 360.800781 338.117188 L 252.847656 229.796875 C 247.292969 224.234375 240.707031 221.894531 233.519531 222.128906 C 227.617188 222.3125 221.289062 224.300781 214.773438 227.53125 C 214.683594 210.769531 213.960938 197.621094 207.816406 185.695312 C 201.398438 173.304688 188.886719 164.742188 171.058594 156.136719 L 169.605469 108.304688 C 202.425781 104.753906 229.605469 85.042969 237.988281 62.566406 C 239.300781 59.105469 238.949219 56.136719 237.828125 53.890625 L 285.414062 55.453125 L 285.414062 56.53125 C 285.414062 58.144531 287.210938 59.457031 289.460938 59.457031 C 291.710938 59.457031 293.515625 58.144531 293.515625 56.53125 L 293.515625 34.671875 C 293.515625 33.03125 291.710938 31.71875 289.460938 31.71875 Z M 289.460938 31.71875 "/></g><path style=" stroke:none;fill-rule:evenodd;fill:#000000;fill-opacity:1;" d="M 164.523438 57.074219 C 159.984375 68.671875 146.742188 74.425781 134.960938 69.957031 C 123.199219 65.515625 117.363281 52.488281 121.910156 40.933594 C 126.480469 29.335938 139.691406 23.585938 151.453125 28.023438 C 163.230469 32.492188 169.066406 45.496094 164.523438 57.074219 Z M 164.523438 57.074219 "/><g style="fill:#000000;fill-opacity:1;"><g transform="translate(184.464837, 195.374987)"><path style="stroke:none" d="M 3.03125 0.09375 C 2.644531 0.09375 2.304688 0.0195312 2.015625 -0.125 C 1.734375 -0.28125 1.515625 -0.492188 1.359375 -0.765625 C 1.203125 -1.046875 1.125 -1.359375 1.125 -1.703125 C 1.125 -2.046875 1.203125 -2.351562 1.359375 -2.625 C 1.515625 -2.894531 1.734375 -3.109375 2.015625 -3.265625 C 2.304688 -3.421875 2.644531 -3.5 3.03125 -3.5 C 3.414062 -3.5 3.753906 -3.421875 4.046875 -3.265625 C 4.335938 -3.117188 4.554688 -2.90625 4.703125 -2.625 C 4.859375 -2.351562 4.9375 -2.046875 4.9375 -1.703125 C 4.9375 -1.179688 4.765625 -0.75 4.421875 -0.40625 C 4.078125 -0.0703125 3.613281 0.09375 3.03125 0.09375 Z M 3.03125 0.09375 "/></g></g></g></svg>