<svg xmlns="http://www.w3.org/2000/svg" xmlns:xlink="http://www.w3.org/1999/xlink" width="500" zoomAndPan="magnify" viewBox="0 0 375 374.999991" height="500" preserveAspectRatio="xMidYMid meet" version="1.2"><defs><clipPath id="f5fe942411"><path d="M 1 23 L 373 23 L 373 360.796875 L 1 360.796875 Z M 1 23 "/></clipPath></defs><g id="7b1369b30f"><g style="fill:#000000;fill-opacity:1;"><g transform="translate(184.464837, 195.374987)"><path style="stroke:none" d="M 3.03125 0.09375 C 2.644531 0.09375 2.304688 0.0195312 2.015625 -0.125 C 1.734375 -0.28125 1.515625 -0.492188 1.359375 -0.765625 C 1.203125 -1.046875 1.125 -1.359375 1.125 -1.703125 C 1.125 -2.046875 1.203125 -2.351562 1.359375 -2.625 C 1.515625 -2.894531 1.734375 -3.109375 2.015625 -3.265625 C 2.304688 -3.421875 2.644531 -3.5 3.03125 -3.5 C 3.414062 -3.5 3.753906 -3.421875 4.046875 -3.265625 C 4.335938 -3.117188 4.554688 -2.90625 4.703125 -2.625 C 4.859375 -2.351562 4.9375 -2.046875 4.9375 -1.703125 C 4.9375 -1.179688 4.765625 -0.75 4.421875 -0.40625 C 4.078125 -0.0703125 3.613281 0.09375 3.03125 0.09375 Z M 3.03125 0.09375 "/></g></g><g clip-rule="nonzero" clip-path="url(#f5fe942411)"><path style=" stroke:none;fill-rule:nonzero;fill:#000000;fill-opacity:1;" d="M 235.550781 244.554688 C 239.078125 244.800781 242.675781 246.453125 246.453125 250.253906 L 336.933594 341.226562 L 300.089844 341.226562 Z M 151.160156 173.0625 C 154.460938 172.917969 158.3125 174.03125 162.160156 176.050781 C 177.542969 184.117188 184.578125 189.621094 188.054688 196.402344 C 192.121094 204.269531 192.859375 217.046875 192.859375 239.597656 C 192.808594 240.777344 192.9375 241.867188 193.128906 242.875 L 162.183594 260.757812 C 151.875 266.707031 144.992188 269.296875 133.773438 269.835938 C 137.769531 239.445312 139.570312 216.035156 141.070312 185.988281 C 141.496094 177.089844 145.609375 173.320312 151.160156 173.0625 Z M 209.3125 45.734375 L 225.910156 46.300781 C 225.683594 46.675781 225.4375 47.039062 225.214844 47.488281 C 219.101562 60.882812 210.890625 68.160156 201.589844 72.871094 C 205.664062 65.867188 208.445312 57.105469 209.3125 45.734375 Z M 294.636719 23.359375 C 292.269531 23.359375 290.375 24.742188 290.375 26.472656 L 290.375 27.53125 L 186.945312 30.21875 C 175.28125 30.515625 175.75 44.652344 186.945312 45.019531 L 197.375 45.363281 C 194.515625 59.742188 187.789062 67.144531 179.820312 73.160156 C 175.253906 76.613281 165.445312 81.746094 158.734375 81.894531 L 126.703125 82.539062 C 119.695312 82.683594 114.300781 88.726562 115.207031 95.683594 C 121.207031 140.75 120.019531 197.113281 110.648438 267.855469 C 110.519531 268.574219 110.519531 269.265625 110.519531 269.957031 L 104.40625 269.957031 C 85.09375 269.957031 80.1875 273.878906 65.171875 288.183594 L 3.957031 346.554688 C -0.0820312 350.398438 1.34375 360.683594 8.546875 360.683594 L 367.117188 360.683594 C 372.515625 360.683594 375.128906 352.003906 369.730469 346.554688 L 256.09375 232.292969 C 250.246094 226.425781 243.3125 223.957031 235.75 224.203125 C 229.535156 224.398438 222.875 226.496094 216.019531 229.902344 C 215.921875 212.222656 215.160156 198.355469 208.691406 185.777344 C 201.9375 172.703125 188.769531 163.671875 170 154.597656 L 168.46875 104.144531 C 203.019531 100.398438 231.628906 79.605469 240.453125 55.898438 C 241.835938 52.246094 241.464844 49.113281 240.285156 46.746094 L 290.375 48.394531 L 290.375 49.53125 C 290.375 51.230469 292.269531 52.613281 294.636719 52.613281 C 297.003906 52.613281 298.902344 51.230469 298.902344 49.53125 L 298.902344 26.472656 C 298.902344 24.742188 297.003906 23.359375 294.636719 23.359375 Z M 294.636719 23.359375 "/></g><path style=" stroke:none;fill-rule:evenodd;fill:#000000;fill-opacity:1;" d="M 163.121094 50.105469 C 158.34375 62.335938 144.402344 68.40625 132.003906 63.691406 C 119.621094 59.007812 113.480469 45.265625 118.265625 33.078125 C 123.078125 20.84375 136.984375 14.777344 149.367188 19.460938 C 161.761719 24.175781 167.902344 37.890625 163.121094 50.105469 Z M 163.121094 50.105469 "/></g></svg>