<svg xmlns="http://www.w3.org/2000/svg" xmlns:xlink="http://www.w3.org/1999/xlink" width="500" zoomAndPan="magnify" viewBox="0 0 375 374.999991" height="500" preserveAspectRatio="xMidYMid meet" version="1.2"><defs><clipPath id="9d49419890"><path d="M 74.558594 73 L 167 73 L 167 191 L 74.558594 191 Z M 74.558594 73 "/></clipPath><clipPath id="285e79d5ba"><path d="M 185 10.335938 L 250 10.335938 L 250 77 L 185 77 Z M 185 10.335938 "/></clipPath></defs><g id="81f4418ad0"><g clip-rule="nonzero" clip-path="url(#9d49419890)"><path style=" stroke:none;fill-rule:nonzero;fill:#231f20;fill-opacity:1;" d="M 74.539062 158.492188 C 75.644531 154.847656 76.335938 151.007812 77.941406 147.613281 C 81.902344 139.257812 86.253906 131.09375 90.511719 122.898438 C 91.925781 120.175781 94.273438 118.785156 97.386719 119.207031 C 100.558594 119.632812 102.308594 118.148438 103.800781 115.488281 C 110.078125 104.292969 116.484375 93.179688 122.953125 82.097656 C 124.066406 80.175781 125.574219 78.433594 127.132812 76.832031 C 130.714844 73.160156 135.257812 72.902344 139.886719 73.894531 C 145.496094 75.097656 151.109375 76.347656 156.582031 78.039062 C 165.449219 80.78125 167.714844 85.042969 165.035156 93.9375 C 159.898438 111.003906 154.546875 128.003906 149.289062 145.03125 C 146.109375 155.300781 143.074219 165.613281 139.71875 175.816406 C 136.3125 186.140625 130.691406 190.261719 120.152344 190.035156 C 116.070312 189.949219 111.925781 188.40625 107.996094 186.996094 C 101.160156 184.550781 94.382812 181.898438 87.753906 178.953125 C 82.75 176.730469 78.484375 173.390625 76.320312 168.074219 C 75.554688 166.210938 75.117188 164.210938 74.539062 162.277344 C 74.539062 161.007812 74.539062 159.75 74.539062 158.492188 "/></g><path style=" stroke:none;fill-rule:nonzero;fill:#231f20;fill-opacity:1;" d="M 144.464844 197.449219 C 147.707031 208.554688 154.554688 217.015625 161.503906 225.386719 C 165.632812 230.355469 170.023438 235.121094 174.226562 240.042969 C 174.808594 240.710938 175.460938 241.832031 175.28125 242.550781 C 173.289062 250.722656 171.597656 259.003906 168.859375 266.933594 C 167.109375 272.023438 164.230469 276.910156 161.035156 281.28125 C 147.917969 299.234375 136.902344 318.511719 125.210938 337.359375 C 122.863281 341.132812 119.902344 344.289062 115.964844 346.59375 C 106.097656 352.371094 93.632812 345.367188 92.554688 333.480469 C 92.101562 328.511719 93.789062 324.027344 96.265625 319.9375 C 105.695312 304.339844 115.160156 288.773438 124.847656 273.335938 C 129.730469 265.578125 132.230469 257.0625 134.046875 248.246094 C 136.355469 237.113281 138.550781 225.960938 140.816406 214.820312 C 141.96875 209.152344 143.195312 203.488281 144.464844 197.449219 "/><path style=" stroke:none;fill-rule:nonzero;fill:#231f20;fill-opacity:1;" d="M 298.609375 151.953125 C 297.167969 147.554688 293.851562 145.363281 289.300781 144.449219 C 281.75 142.941406 274.277344 144.191406 266.816406 144.765625 C 255.996094 145.597656 246.667969 142.96875 240.488281 133.652344 C 234.734375 124.988281 229.695312 115.859375 224.320312 106.9375 C 220.714844 100.945312 217.339844 94.785156 213.386719 89.015625 C 208.949219 82.539062 202.214844 79.453125 194.566406 79.910156 C 182.003906 80.652344 174.589844 85.734375 170.878906 97.855469 C 166.027344 113.707031 161.421875 129.617188 156.800781 145.539062 C 153.578125 156.628906 150.214844 167.695312 147.488281 178.914062 C 144.882812 189.617188 146.285156 199.84375 152.628906 209.273438 C 160.234375 220.582031 169.09375 230.847656 178.46875 240.664062 C 184.0625 246.519531 190.03125 252.011719 195.863281 257.632812 C 203.351562 264.835938 206.933594 273.617188 206.515625 283.992188 C 206.246094 290.539062 206.078125 297.105469 205.488281 303.621094 C 204.660156 312.90625 203.375 322.148438 202.488281 331.425781 C 201.820312 338.464844 202.109375 345.425781 205.652344 351.871094 C 210.644531 360.960938 222.148438 364.226562 230.363281 358.660156 C 236.1875 354.71875 238.867188 348.660156 239.707031 341.996094 C 240.640625 334.617188 241.054688 327.15625 241.34375 319.722656 C 242.023438 302.210938 242.328125 284.683594 243.136719 267.183594 C 243.507812 259.09375 241.070312 252.1875 236.308594 245.890625 C 224.878906 230.765625 213.460938 215.628906 201.980469 200.539062 C 199.65625 197.480469 198.738281 194.390625 199.785156 190.511719 C 203.625 176.246094 207.230469 161.914062 210.984375 147.621094 C 211.46875 145.773438 211.363281 144.417969 210.023438 142.804688 C 204.640625 136.304688 199.445312 129.636719 194.257812 122.964844 C 194.144531 122.820312 194.074219 122.648438 194.015625 122.464844 C 194.007812 122.425781 193.539062 120.648438 195.46875 120.933594 C 195.734375 121.027344 195.976562 121.15625 196.128906 121.351562 C 206.804688 134.683594 217.527344 147.976562 227.960938 161.484375 C 232.46875 167.324219 237.785156 170.632812 245.363281 170.261719 C 251.292969 169.96875 257.246094 170.203125 263.191406 170.203125 C 263.191406 170.210938 263.191406 170.21875 263.191406 170.234375 C 269.945312 170.234375 276.707031 170.429688 283.441406 170.171875 C 287.976562 169.996094 292.414062 168.929688 295.578125 165.226562 C 298.878906 161.363281 300.234375 156.886719 298.609375 151.953125 "/><g clip-rule="nonzero" clip-path="url(#285e79d5ba)"><path style=" stroke:none;fill-rule:nonzero;fill:#231f20;fill-opacity:1;" d="M 249.839844 43.578125 C 249.839844 61.917969 235.382812 76.78125 217.550781 76.78125 C 199.722656 76.78125 185.269531 61.917969 185.269531 43.578125 C 185.269531 25.242188 199.722656 10.378906 217.550781 10.378906 C 235.382812 10.378906 249.839844 25.242188 249.839844 43.578125 "/></g><path style=" stroke:none;fill-rule:nonzero;fill:#231f20;fill-opacity:1;" d="M 291.574219 138.933594 L 295.367188 110.519531 C 295.648438 108.382812 294.148438 106.414062 292.003906 106.125 L 291.671875 106.082031 C 289.535156 105.792969 287.558594 107.300781 287.273438 109.4375 L 283.339844 138.933594 L 291.574219 138.933594 "/><path style=" stroke:none;fill-rule:nonzero;fill:#231f20;fill-opacity:1;" d="M 278.675781 173.867188 L 254.230469 356.925781 C 253.945312 359.070312 255.445312 361.039062 257.59375 361.324219 L 257.921875 361.371094 C 260.0625 361.652344 262.039062 360.144531 262.320312 358.007812 L 286.902344 173.867188 L 278.675781 173.867188 "/><g style="fill:#000000;fill-opacity:1;"><g transform="translate(184.464837, 195.374987)"><path style="stroke:none" d="M 3.03125 0.09375 C 2.644531 0.09375 2.304688 0.0195312 2.015625 -0.125 C 1.734375 -0.28125 1.515625 -0.492188 1.359375 -0.765625 C 1.203125 -1.046875 1.125 -1.359375 1.125 -1.703125 C 1.125 -2.046875 1.203125 -2.351562 1.359375 -2.625 C 1.515625 -2.894531 1.734375 -3.109375 2.015625 -3.265625 C 2.304688 -3.421875 2.644531 -3.5 3.03125 -3.5 C 3.414062 -3.5 3.753906 -3.421875 4.046875 -3.265625 C 4.335938 -3.117188 4.554688 -2.90625 4.703125 -2.625 C 4.859375 -2.351562 4.9375 -2.046875 4.9375 -1.703125 C 4.9375 -1.179688 4.765625 -0.75 4.421875 -0.40625 C 4.078125 -0.0703125 3.613281 0.09375 3.03125 0.09375 Z M 3.03125 0.09375 "/></g></g></g></svg>